<?xml version="1.0" encoding="utf-8"?>
<!-- Generator: Adobe Illustrator 15.1.0, SVG Export Plug-In . SVG Version: 6.00 Build 0)  -->
<!DOCTYPE svg PUBLIC "-//W3C//DTD SVG 1.1//EN" "http://www.w3.org/Graphics/SVG/1.1/DTD/svg11.dtd">
<svg version="1.1" id="Layer_1" xmlns="http://www.w3.org/2000/svg" xmlns:xlink="http://www.w3.org/1999/xlink" x="0px" y="0px"
	 width="320px" height="170px" viewBox="0 0 320 170" enable-background="new 0 0 320 170" xml:space="preserve">
<g>
	<g>
		<g>
			<path fill="#7AC143" d="M226.144,79.16c1.928-0.609,3.765-0.915,5.502-0.915c3.434,0,5.384,1.39,5.854,4.162
				c3.057-3.058,6.536-4.586,10.441-4.586c3.196,0,5.829,0.917,7.899,2.75c2.067,1.837,3.103,4.447,3.103,7.831
				c0,0.094-0.034,1.787-0.105,5.08c-0.072,3.29-0.104,6.213-0.104,7.908c0,4.045,0.396,7.474,1.198,10.297
				c-2.023,0.611-4.07,0.92-6.135,0.92c-3.766,0-5.644-1.436-5.644-4.304c0-1.691,0.067-5.24,0.208-9.779
				c0.146-4.538,0.213-7.276,0.213-8.216c0-1.93-0.389-3.376-1.163-4.338c-0.777-0.962-1.776-1.449-2.996-1.449
				c-1.978,0-4.163,1.153-6.562,3.456c0.094,6.022,0.143,10.804,0.143,13.481c0,4.139,0.116,7.759,0.351,10.864
				c-1.553,0.142-2.939,0.212-4.161,0.212c-4.702,0-7.052-1.131-7.052-3.385c0-0.188,0.057-1.833,0.176-4.938
				c0.115-3.104,0.177-6.755,0.177-10.096C227.485,86.449,227.036,81.467,226.144,79.16"/>
			<path fill="#7AC143" d="M53.935,65.381c0,1.551-0.824,3.195-2.469,4.937c-1.177-1.223-2.799-1.834-4.866-1.834
				c-2.116,0-3.541,0.612-4.268,1.834c-0.729,1.225-1.093,3.152-1.093,5.784v2.681c4.186-0.094,7.287-0.282,9.311-0.565
				c0.327,0.659,0.492,1.624,0.492,2.89c0,1.556-0.436,2.623-1.303,3.214c-0.871,0.587-2.177,0.903-3.915,0.95
				c-2.21,0.047-3.739,0.07-4.584,0.07v13.615c0,5.781,0.424,10.615,1.27,13.388c-1.601,0.379-3.313,0.568-5.149,0.568
				c-2.493,0-4.21-0.284-5.15-0.848c-0.939-0.563-1.41-1.506-1.41-2.821c0-0.52,0.024-4.01,0.071-9.373
				c0.047-5.362,0.069-10.179,0.069-14.459c-0.894,0-2.61,0.144-5.147,0.424c-0.377-0.984-0.564-2.045-0.564-3.173
				c0-2.635,1.903-3.952,5.711-3.952c0-2.116,0.108-3.937,0.319-5.466c0.209-1.527,0.623-3.056,1.235-4.585
				c0.608-1.527,1.454-2.771,2.538-3.736c1.082-0.964,2.526-1.742,4.338-2.332c1.808-0.583,3.984-0.881,6.524-0.881
				C51.254,61.71,53.935,62.934,53.935,65.381"/>
			<path fill="#7AC143" d="M72.767,97.193c0-3.575-0.589-6.55-1.763-8.924c-1.177-2.373-2.799-3.562-4.865-3.562
				c-2.024,0-3.61,0.965-4.762,2.893c-1.154,1.929-1.73,4.469-1.73,7.616c0,3.104,0.576,5.682,1.73,7.726
				c1.152,2.044,2.738,3.068,4.762,3.068c2.116,0,3.746-0.812,4.9-2.435C72.191,101.955,72.767,99.828,72.767,97.193 M78.55,108.194
				c-3.148,3.105-7.287,4.655-12.411,4.655c-5.129,0-9.253-1.55-12.38-4.655c-3.127-3.104-4.691-7.24-4.691-12.411
				c0-5.41,1.564-9.738,4.691-12.981c3.127-3.241,7.25-4.868,12.38-4.868c5.124,0,9.263,1.627,12.411,4.868
				c3.148,3.243,4.726,7.571,4.726,12.981C83.276,100.954,81.698,105.09,78.55,108.194"/>
			<path fill="#7AC143" d="M108.85,97.193c0-3.575-0.59-6.55-1.764-8.924c-1.177-2.373-2.799-3.562-4.865-3.562
				c-2.023,0-3.61,0.965-4.762,2.893c-1.154,1.929-1.73,4.469-1.73,7.616c0,3.104,0.576,5.682,1.73,7.726
				c1.152,2.044,2.739,3.068,4.762,3.068c2.115,0,3.746-0.812,4.9-2.435C108.273,101.955,108.85,99.828,108.85,97.193
				 M114.631,108.194c-3.148,3.105-7.287,4.655-12.411,4.655c-5.128,0-9.253-1.55-12.38-4.655c-3.127-3.104-4.692-7.24-4.692-12.411
				c0-5.41,1.564-9.738,4.692-12.981c3.127-3.241,7.251-4.868,12.38-4.868c5.124,0,9.263,1.627,12.411,4.868
				c3.148,3.243,4.725,7.571,4.725,12.981C119.356,100.954,117.78,105.09,114.631,108.194"/>
			<path fill="#7AC143" d="M171.281,104.316c1.268,1.409,2.938,2.115,5.006,2.115c1.787,0,3.293-1.093,4.516-3.28
				c1.225-2.186,1.833-4.972,1.833-8.358c0-3.054-0.608-5.512-1.833-7.369c-1.223-1.856-2.893-2.789-5.008-2.789
				c-1.505,0-2.962,0.518-4.374,1.555C171.421,88.587,171.375,94.632,171.281,104.316 M189.231,107.912
				c-2.609,3.295-5.726,4.936-9.347,4.936c-1.457,0-2.996-0.396-4.62-1.194c-1.622-0.798-3.044-1.835-4.268-3.105
				c-0.28,1.271-0.846,2.268-1.69,2.998c-0.848,0.729-2.257,1.095-4.232,1.095c-1.411,0-3.246-0.282-5.502-0.851
				c0.891-2.82,1.339-7.944,1.339-15.373c0-2.869-0.104-8.255-0.317-16.151c-0.211-7.902-0.317-13.238-0.317-16.015
				c0-3.008,2.189-4.513,6.56-4.513c0.987,0,2.562,0.306,4.725,0.916c-0.375,3.245-0.564,7.433-0.564,12.558
				c0,1.739,0.048,4.114,0.142,7.123c2.681-1.598,5.339-2.4,7.972-2.4c3.997,0,7.336,1.708,10.014,5.113
				c2.681,3.413,4.023,7.54,4.023,12.384C193.147,100.461,191.841,104.621,189.231,107.912"/>
			<path fill="#7AC143" d="M143.023,86.189c-1.41-1.037-2.868-1.555-4.374-1.555c-2.114,0-3.785,0.931-5.008,2.788
				c-1.223,1.856-1.833,4.315-1.833,7.37c0,3.388,0.609,6.173,1.833,8.357c1.224,2.188,2.729,3.281,4.516,3.281
				c2.069,0,3.738-0.706,5.007-2.115C143.07,94.632,143.023,88.587,143.023,86.189 M121.299,95.431
				c0-4.844,1.342-8.971,4.023-12.382c2.676-3.407,6.016-5.115,10.015-5.115c2.63,0,5.289,0.803,7.97,2.4
				c0.093-3.01,0.141-5.384,0.141-7.123c0-5.125-0.189-9.313-0.565-12.559c2.163-0.608,3.739-0.916,4.725-0.916
				c4.374,0,6.561,1.505,6.561,4.514c0,2.778-0.105,8.112-0.316,16.013c-0.214,7.898-0.318,13.284-0.318,16.153
				c0,7.429,0.447,12.553,1.338,15.373c-2.256,0.568-4.09,0.85-5.501,0.85c-1.976,0-3.386-0.365-4.23-1.094
				c-0.848-0.73-1.413-1.728-1.693-2.998c-1.223,1.271-2.646,2.307-4.268,3.105c-1.624,0.8-3.164,1.196-4.621,1.196
				c-3.621,0-6.737-1.643-9.345-4.938C122.604,104.621,121.299,100.461,121.299,95.431"/>
			<path fill="#7AC143" d="M213.597,97.332c-1.41,0.237-2.493,0.448-3.241,0.636c-0.755,0.189-1.566,0.482-2.437,0.882
				c-0.87,0.398-1.48,0.918-1.831,1.552c-0.354,0.632-0.53,1.421-0.53,2.362c0,1.174,0.281,2.056,0.846,2.646
				s1.271,0.882,2.116,0.882c1.976,0,3.621-0.591,4.938-1.763c-0.048-0.425-0.073-1.129-0.073-2.116
				C213.385,100.721,213.458,99.026,213.597,97.332 M202.031,89.997c-4.139-0.75-6.207-2.515-6.207-5.29
				c0-1.881,1.351-3.479,4.056-4.795c2.702-1.316,5.959-1.979,9.77-1.979c4.938,0,8.579,0.941,10.933,2.822
				c2.351,1.884,3.527,5.008,3.527,9.385c0,0.374-0.025,1.763-0.072,4.159c-0.048,2.398-0.071,4.187-0.071,5.363
				c0,5.405,0.445,9.45,1.342,12.13c-2.068,0.566-3.904,0.847-5.501,0.847c-3.389,0-5.362-1.363-5.924-4.092
				c-1.131,1.315-2.577,2.362-4.341,3.139c-1.764,0.777-3.538,1.163-5.326,1.163c-2.585,0-4.76-0.832-6.524-2.501
				c-1.765-1.672-2.646-4.151-2.646-7.444c0-2.63,0.53-4.561,1.587-5.781c1.059-1.226,2.505-2.139,4.341-2.752
				c3.572-1.129,7.806-1.834,12.695-2.116c0-2.869-0.316-4.879-0.953-6.032c-0.634-1.153-1.964-1.725-3.982-1.725
				c-1.179,0-2.434,0.49-3.776,1.479C203.618,86.965,202.64,88.306,202.031,89.997"/>
			<path fill="#7AC143" d="M273.388,97.425c0.027-0.017,0.055-0.034,0.083-0.057c3.617,6.233,6.231,10.507,8.637,12.705
				c2.057,1.884,4.197,2.84,6.364,2.84c1.615,0,3.024-0.3,4.187-0.896c1.384-0.703,2.113-1.861,2.113-3.341
				c0-0.732-0.172-1.583-0.522-2.608l-0.151-0.443c-0.784,0.127-1.643,0.12-2.539-0.13c-0.064-0.018-0.138-0.065-0.203-0.091
				c-0.09-0.028-0.185-0.078-0.275-0.121c-0.097-0.048-0.187-0.081-0.284-0.142c-0.083-0.051-0.171-0.117-0.255-0.18
				c-3.729-2.545-9.591-12.73-9.591-12.73l0.051,0.038c-0.009-0.012-0.015-0.021-0.023-0.035
				c9.218-6.639,10.309-9.539,10.309-11.147c0-1.091-0.34-1.939-1.069-2.671c-0.688-0.685-1.897-1.29-3.7-1.846l-0.942-0.289
				l-0.375,0.906c-0.764,1.854-2.468,4.019-5.065,6.441c-2.239,2.091-4.535,3.937-6.835,5.596c0.004-1.352,0.009-2.526,0.009-3.406
				v-5.873l0.004-0.006c0.005-1.59,0.009-3.521,0.017-5.542c1.869-0.132,14.719-1.489,14.719-14.141c0,0-11.765-0.274-14.688,8.968
				V67.34c0-12.812,10.038-3.58,10.038-21.107V16.888c0-3.46-4.438-3.54-4.438,0v26.706c0,4.447-4.305,4.447-4.305,0V16.888
				c0-3.619-4.35-3.54-4.35,0v26.706c0-3.825,0,0,0,0c0,4.402-4.528,4.447-4.528,0h0.002V16.888c0-3.46-4.342-3.46-4.342,0v26.706
				c0,4.447-4.312,4.402-4.312,0V16.888c0-3.46-4.438-3.46-4.438,0v29.345c0,17.527,10.01,8.055,10.01,21.107v2.354
				c-2.687-9.704-14.779-9.437-14.779-9.437c0,12.863,13.292,14.054,14.81,14.148c0.003,0.765,0.005,1.491,0.005,2.13v16.042
				c0,1.966-0.084,4.917-0.251,8.845c-0.17,3.933-0.255,6.044-0.255,6.334c0,1.82,0.506,3.045,1.512,3.666
				c1.007,0.624,2.422,0.936,4.243,0.936c1.999,0,3.877-0.307,5.653-0.893c-0.23-3.351-0.31-8.801-0.333-13.982L273.388,97.425z"/>
		</g>
	</g>
	<g>
		<path fill="#FBB034" d="M86.658,55.734l-0.015-0.043c-1.468-4.267,0.523-8.863,5.07-10.427c2.767-0.952,4.772-0.562,6.68,0.315
			l-1.021,2.535c-1.585-0.702-3.13-1.009-4.845-0.419c-2.875,0.989-4.142,4.064-3.132,7.002l0.017,0.042
			c1.008,2.938,3.916,4.625,6.791,3.635c1.843-0.633,2.765-1.79,3.638-3.433l2.285,1.132c-1.005,2.168-2.366,3.788-5.176,4.754
			C92.573,62.333,88.14,60.044,86.658,55.734"/>
		<path fill="#FBB034" d="M115.787,47.227l-0.011-0.045c-0.712-3.001-3.49-4.979-6.558-4.251c-3.066,0.727-4.628,3.685-3.916,6.688
			l0.01,0.043c0.71,3.002,3.488,4.979,6.556,4.25C114.938,53.187,116.499,50.229,115.787,47.227 M102.475,50.381l-0.01-0.044
			c-1.03-4.349,1.462-8.787,6.208-9.912c4.746-1.125,8.91,1.689,9.94,6.037l0.011,0.044c1.031,4.35-1.461,8.787-6.206,9.912
			C107.67,57.543,103.506,54.73,102.475,50.381"/>
		<polygon fill="#FBB034" points="121.043,38.033 123.986,37.632 129.785,44.417 133.558,36.328 136.502,35.927 138.646,51.656 
			135.88,52.032 134.345,40.752 130.389,48.844 130.299,48.856 124.374,42.157 125.904,53.391 123.187,53.762 		"/>
		<polygon fill="#FBB034" points="141.938,35.455 144.907,35.333 150.041,42.639 154.564,34.938 157.533,34.817 158.181,50.685 
			155.393,50.799 154.929,39.419 150.223,47.104 150.132,47.108 144.866,39.876 145.329,51.209 142.585,51.32 		"/>
		<path fill="#FBB034" d="M161.991,44.003l0.396-9.129l2.787,0.122l-0.394,9.016c-0.128,2.945,1.32,4.597,3.812,4.706
			c2.469,0.109,4.053-1.321,4.182-4.244l0.396-9.13l2.786,0.122l-0.392,8.994c-0.206,4.736-2.983,6.998-7.13,6.817
			C164.313,51.095,161.79,48.602,161.991,44.003"/>
		<polygon fill="#FBB034" points="180.534,35.836 183.098,36.16 190.166,48.118 191.539,37.226 194.262,37.567 192.275,53.322 
			189.957,53.03 182.684,40.726 181.271,51.934 178.547,51.591 		"/>
		
			<rect x="197.669" y="38.634" transform="matrix(-0.9824 -0.1868 0.1868 -0.9824 385.9247 129.5079)" fill="#FBB034" width="2.789" height="15.878"/>
		<polygon fill="#FBB034" points="209.898,43.436 205.014,42.213 205.641,39.706 218.137,42.831 217.509,45.339 212.625,44.118 
			209.402,57.011 206.673,56.328 		"/>
		<polygon fill="#FBB034" points="223.809,54.768 221.021,43.61 224.126,44.693 226.011,52.796 232.565,47.635 235.585,48.687 
			226.488,55.629 224.405,61.605 221.748,60.68 		"/>
		<path fill="#FBB034" d="M64.368,129.873v-0.031c0-2.238-1.628-4.097-3.915-4.097c-2.286,0-3.882,1.825-3.882,4.062v0.034
			c0,2.235,1.628,4.096,3.915,4.096C62.774,133.938,64.368,132.111,64.368,129.873 M54.449,129.873v-0.031
			c0-3.241,2.501-5.956,6.038-5.956c3.537,0,6.004,2.681,6.004,5.922v0.034c0,3.239-2.501,5.955-6.038,5.955
			C56.917,135.797,54.449,133.115,54.449,129.873"/>
		<polygon fill="#FBB034" points="68.935,124.084 77.505,124.084 77.505,125.926 70.958,125.926 70.958,129.068 76.765,129.068 
			76.765,130.911 70.958,130.911 70.958,135.598 68.935,135.598 		"/>
		<path fill="#FBB034" d="M84.143,129.873v-0.031c0-3.275,2.452-5.956,5.938-5.956c2.122,0,3.406,0.741,4.507,1.794l-1.299,1.497
			c-0.921-0.855-1.907-1.432-3.224-1.432c-2.204,0-3.801,1.811-3.801,4.062v0.034c0,2.253,1.597,4.096,3.801,4.096
			c1.414,0,2.319-0.577,3.306-1.497l1.3,1.313c-1.201,1.253-2.517,2.043-4.672,2.043C86.644,135.797,84.143,133.182,84.143,129.873"
			/>
		<polygon fill="#FBB034" points="96.951,124.084 105.489,124.084 105.489,125.892 98.974,125.892 98.974,128.888 104.748,128.888 
			104.748,130.696 98.974,130.696 98.974,133.788 105.572,133.788 105.572,135.598 96.951,135.598 		"/>
		<polygon fill="#FBB034" points="108.098,124.084 109.974,124.084 116.143,132.046 116.143,124.084 118.133,124.084 
			118.133,135.598 116.438,135.598 110.089,127.407 110.089,135.598 108.098,135.598 		"/>
		<polygon fill="#FBB034" points="124.329,125.958 120.676,125.958 120.676,124.084 130.019,124.084 130.019,125.958 
			126.367,125.958 126.367,135.598 124.329,135.598 		"/>
		<path fill="#FBB034" d="M137.547,129.792c1.447,0,2.368-0.757,2.368-1.925v-0.031c0-1.235-0.887-1.91-2.383-1.91h-2.946v3.866
			H137.547z M132.564,124.084h5.132c1.447,0,2.583,0.428,3.322,1.151c0.608,0.626,0.956,1.48,0.956,2.484v0.032
			c0,1.892-1.135,3.027-2.748,3.487l3.108,4.358h-2.385l-2.828-4.012h-2.536v4.012h-2.022V124.084z"/>
		<path fill="#FBB034" d="M152.461,131.026l-1.991-4.606l-1.974,4.606H152.461z M149.565,124h1.876l5.065,11.599h-2.137
			l-1.169-2.781h-5.444l-1.186,2.781h-2.073L149.565,124z"/>
		<polygon fill="#FBB034" points="159.068,124.084 161.091,124.084 161.091,133.754 167.145,133.754 167.145,135.598 
			159.068,135.598 		"/>
		<path fill="#FBB034" d="M182.207,131.026l-1.991-4.606l-1.973,4.606H182.207z M179.311,124h1.876l5.066,11.599h-2.138
			l-1.167-2.781h-5.446l-1.185,2.781h-2.073L179.311,124z"/>
		<polygon fill="#FBB034" points="188.714,124.084 190.737,124.084 190.737,133.754 196.791,133.754 196.791,135.598 
			188.714,135.598 		"/>
		<path fill="#FBB034" d="M207.281,131.026l-1.991-4.606l-1.975,4.606H207.281z M204.385,124h1.876l5.066,11.599h-2.139
			l-1.167-2.781h-5.447l-1.183,2.781h-2.073L204.385,124z"/>
		<path fill="#FBB034" d="M219.198,133.805c1.381,0,2.222-0.543,2.222-1.579v-0.031c0-0.973-0.774-1.547-2.369-1.547h-3.208v3.157
			H219.198z M218.606,128.937c1.301,0,2.171-0.51,2.171-1.563v-0.032c0-0.906-0.724-1.464-2.023-1.464h-2.911v3.06H218.606z
			 M213.852,124.084h5.165c1.316,0,2.354,0.361,3.012,1.021c0.509,0.509,0.772,1.135,0.772,1.907v0.033
			c0,1.382-0.788,2.122-1.645,2.566c1.35,0.46,2.287,1.234,2.287,2.795v0.034c0,2.057-1.695,3.157-4.262,3.157h-5.33V124.084z"/>
		<path fill="#FBB034" d="M233.24,131.026l-1.99-4.606l-1.975,4.606H233.24z M230.345,124h1.876l5.066,11.599h-2.137l-1.168-2.781
			h-5.445l-1.186,2.781h-2.073L230.345,124z"/>
		<polygon fill="#FBB034" points="239.764,124.084 241.919,124.084 245.423,129.528 248.928,124.084 251.082,124.084 
			251.082,135.598 249.06,135.598 249.06,127.341 245.423,132.769 245.358,132.769 241.755,127.373 241.755,135.598 
			239.764,135.598 		"/>
		<path fill="#FBB034" d="M261.504,131.026l-1.99-4.606l-1.974,4.606H261.504z M258.609,124h1.875l5.064,11.599h-2.138l-1.166-2.781
			h-5.444l-1.186,2.781h-2.074L258.609,124z"/>
	</g>
</g>
</svg>
