<?xml version="1.0" encoding="utf-8"?>
<!-- Generator: Adobe Illustrator 15.1.0, SVG Export Plug-In . SVG Version: 6.00 Build 0)  -->
<!DOCTYPE svg PUBLIC "-//W3C//DTD SVG 1.1//EN" "http://www.w3.org/Graphics/SVG/1.1/DTD/svg11.dtd">
<svg version="1.1" id="Layer_1" xmlns="http://www.w3.org/2000/svg" xmlns:xlink="http://www.w3.org/1999/xlink" x="0px" y="0px"
	 width="320px" height="320px" viewBox="0 0 320 320" enable-background="new 0 0 320 320" xml:space="preserve">
<path d="M235.938,22.566H81.736L3.463,159.999l79.44,137.435h154.199l79.435-139.785L235.938,22.566z M230.63,232.828
	c-2.314,2.047-5.283,3.175-8.361,3.175c0,0,0,0-0.001,0c-3.815,0-7.379-1.706-9.776-4.68l-27.224-33.865
	c-7.677-9.558-16.049-18.884-24.885-27.721l-1.687-1.687c-3.983-3.983-9.015-6.642-14.551-7.689
	c-6.984-1.306-13.324-4.645-18.333-9.654l-27.563-27.563c-9.353-9.354-14.038-22.282-12.851-35.507c0-0.044,0.019-0.12,0.035-0.186
	l0.034-0.154c0.36-2.167,2.251-3.302,3.934-3.302c0.736,0,1.817,0.205,2.79,1.177l76.379,76.38
	c10.748,10.747,19.716,18.403,29.873,26.592l31.492,25.287c2.865,2.312,4.625,5.748,4.828,9.429
	c0.198,3.572-1.054,6.911-3.534,9.411C231.047,232.453,230.848,232.654,230.63,232.828z M92.279,240.349
	c-3.37,0-6.535-1.31-8.916-3.691l-0.068-0.066c-2.507-2.551-3.827-6.058-3.621-9.62c0.206-3.563,1.919-6.894,4.701-9.136
	l31.891-25.633c11.216-9.01,21.972-18.648,31.97-28.646l0.734-0.734c3.357,1.344,6.422,3.34,9.019,5.936l0.729,0.729l-2.276,2.276
	c-10.014,10.015-19.65,20.772-28.641,31.974l-25.633,31.89C99.744,238.628,96.14,240.349,92.279,240.349z M171.901,130.917
	c1.009-5.369,3.589-10.254,7.462-14.127l36.553-36.553c0.378-0.377,0.876-0.585,1.402-0.585c0.527,0,1.027,0.208,1.406,0.588
	c0.775,0.776,0.777,2.036,0.004,2.809l-24.045,24.043c-0.565,0.565-0.878,1.313-0.882,2.107c-0.004,0.793,0.302,1.537,0.858,2.093
	c1.135,1.134,3.094,1.134,4.225,0l24.045-24.043c0.757-0.758,2.052-0.755,2.809,0.002c0.379,0.378,0.588,0.876,0.589,1.404
	c0.001,0.527-0.207,1.027-0.585,1.405l-24.046,24.043c-1.144,1.145-1.182,2.921-0.078,4.145l0.078,0.082
	c1.115,1.114,3.073,1.107,4.205-0.021l24.047-24.044c0.755-0.757,2.047-0.757,2.802,0c0.786,0.787,0.786,2.02,0,2.806
	l-24.041,24.042c-0.567,0.567-0.881,1.318-0.881,2.114c0,0.795,0.313,1.546,0.881,2.112c1.115,1.118,3.073,1.108,4.201-0.021
	l24.045-24.044c0.748-0.747,2.065-0.741,2.808,0.003c0.379,0.379,0.588,0.878,0.59,1.405c0.001,0.527-0.207,1.025-0.585,1.403
	l-36.555,36.554c-3.875,3.874-8.762,6.452-14.125,7.456l-2.497,0.443c-5.608,1.081-10.677,3.756-14.658,7.736l-3.615,3.615
	l-8.206-8.207l3.615-3.616c3.979-3.977,6.654-9.043,7.736-14.66L171.901,130.917z"/>
</svg>
