<?xml version="1.0" encoding="utf-8"?>
<!-- Generator: Adobe Illustrator 15.1.0, SVG Export Plug-In . SVG Version: 6.00 Build 0)  -->
<!DOCTYPE svg PUBLIC "-//W3C//DTD SVG 1.1//EN" "http://www.w3.org/Graphics/SVG/1.1/DTD/svg11.dtd">
<svg version="1.1" id="Layer_1" xmlns="http://www.w3.org/2000/svg" xmlns:xlink="http://www.w3.org/1999/xlink" x="0px" y="0px"
	 width="320px" height="320px" viewBox="0 0 320 320" enable-background="new 0 0 320 320" xml:space="preserve">
<polygon fill="#2269A2" points="18.796,159.999 90.455,283.972 229.549,283.972 301.203,157.88 228.498,36.028 89.402,36.028 "/>
<path fill="#FFFFFF" stroke="#2269A2" stroke-miterlimit="10" d="M171.083,156.958l-13.973,13.973
	c-9.123,9.123-17.722,18.737-25.804,28.806l-23.124,28.766c-4.432,5.487-12.651,5.947-17.63,0.967l-0.066-0.064
	c-4.937-5.023-4.454-13.179,1.013-17.586l28.767-23.123c10.064-8.085,19.679-16.685,28.802-25.807l13.973-13.973
	c3.547-3.547,5.905-8.067,6.853-12.983l0.397-2.25c0.927-4.934,3.307-9.431,6.854-12.979l32.972-32.973
	c0.884-0.883,2.291-0.879,3.172,0.002c0.857,0.858,0.886,2.289,0.003,3.172l-21.689,21.688c-0.88,0.881-0.88,2.293-0.022,3.151
	c0.882,0.881,2.294,0.881,3.174,0l21.689-21.688c0.883-0.883,2.29-0.879,3.171,0.002c0.882,0.88,0.886,2.289,0.003,3.172
	l-21.689,21.688c-0.857,0.858-0.881,2.202-0.064,3.107l0.064,0.066c0.861,0.861,2.275,0.861,3.155-0.02l21.689-21.688
	c0.881-0.883,2.287-0.882,3.167-0.001c0.884,0.884,0.884,2.286,0,3.168l-21.688,21.688c-0.882,0.881-0.882,2.293,0,3.174
	c0.86,0.861,2.272,0.861,3.153-0.02l21.688-21.688c0.883-0.882,2.311-0.858,3.171,0.003c0.882,0.881,0.887,2.289,0.004,3.171
	l-32.973,32.974c-3.55,3.548-8.044,5.927-12.982,6.851l-2.246,0.399C179.148,151.051,174.63,153.411,171.083,156.958"/>
<path fill="#FFFFFF" stroke="#2269A2" stroke-miterlimit="10" d="M224.581,225.501c-0.178,0.179-0.376,0.377-0.571,0.531
	c-5.027,4.448-12.763,3.859-17.012-1.412l-24.557-30.549c-7.008-8.725-14.502-17.056-22.414-24.969l-1.521-1.521
	c-3.527-3.527-7.998-5.887-12.89-6.812c-6.349-1.188-12.214-4.274-16.774-8.834l-24.863-24.863
	c-8.484-8.485-12.803-20.341-11.723-32.354c0.001-0.131,0.046-0.265,0.067-0.374c0.526-3.171,4.472-4.518,6.829-2.162l68.897,68.898
	c9.08,9.08,16.903,15.888,26.911,23.954l28.408,22.812C228.834,212.259,229.518,220.524,224.581,225.501"/>
</svg>
