<?xml version="1.0" encoding="utf-8"?>
<!-- Generator: Adobe Illustrator 15.1.0, SVG Export Plug-In . SVG Version: 6.00 Build 0)  -->
<!DOCTYPE svg PUBLIC "-//W3C//DTD SVG 1.1//EN" "http://www.w3.org/Graphics/SVG/1.1/DTD/svg11.dtd">
<svg version="1.1" id="Layer_1" xmlns="http://www.w3.org/2000/svg" xmlns:xlink="http://www.w3.org/1999/xlink" x="0px" y="0px"
	 width="320px" height="320px" viewBox="0 0 320 320" enable-background="new 0 0 320 320" xml:space="preserve">
<g>
	<path d="M142.275,134.39l-0.002,0.008c2.142,0.129,18.206,1.592,22.971,15.966c0.301,0.628,0.587,1.258,0.871,1.935
		C166.114,152.298,167.175,134.212,142.275,134.39z"/>
	<path d="M235.938,22.566H81.736L3.463,159.999l79.44,137.435h154.199l79.437-139.785L235.938,22.566z M205.01,107.598
		c0,0-10.259,17.961-11.211,19.713c-0.937,1.757-0.806,2.838-0.806,2.838l-0.675,13.777c-2.693,18.637-11.612,23.768-11.612,23.768
		l2.741,77.028l-35.365,3.087l2.38-81.737c0,0-2.434-1.617-7.29-4.599c-4.86-2.966-9.453-10.253-10.534-12.689
		c-1.081-2.429-3.512-9.182-10.534-15.936c-7.022-6.746-8.101-4.05-9.722-7.83c-1.632-3.779,3.769-5.401,3.769-5.401
		s14.587-1.083,24.843,15.398c0,0,0.377-0.047,1.035-0.068l0.24-0.552c-0.155-0.011-0.24-0.014-0.24-0.014
		c0.085,0,0.161,0.003,0.243,0.003l1.015-2.347c0,0,1.217-6.212,1.217-8.779c0-2.561-0.807-5.128-0.807-5.128l-8.78-30.25
		c0,0-1.752-5.128,2.838-6.885c4.59-1.758,6.481,2.432,6.481,2.432s9.858,27.411,10.936,30.79c1.083,3.371,3.515-0.54,3.515-0.54
		l-0.538-35.11c0,0-0.677-5.81,5.535-6.351c6.215-0.541,5.675,8.509,5.675,8.509s0.54,30.247,0.674,33.762
		c0.131,3.515,2.43,0.404,2.43,0.404s7.965-28.085,8.778-31.057c0.809-2.972,2.162-6.211,6.616-5.538
		c4.454,0.677,2.698,10.261,2.698,10.261s-6.891,28.628-7.292,30.793c-0.409,2.159,1.081,1.754,1.081,1.754
		s13.503-21.068,14.584-22.553c1.087-1.484,3.248-4.724,7.432-2.432C210.545,98.417,205.01,107.598,205.01,107.598z"/>
</g>
</svg>
