<?xml version="1.0" encoding="utf-8"?>
<!-- Generator: Adobe Illustrator 15.1.0, SVG Export Plug-In . SVG Version: 6.00 Build 0)  -->
<!DOCTYPE svg PUBLIC "-//W3C//DTD SVG 1.1//EN" "http://www.w3.org/Graphics/SVG/1.1/DTD/svg11.dtd">
<svg version="1.1" id="Layer_1" xmlns="http://www.w3.org/2000/svg" xmlns:xlink="http://www.w3.org/1999/xlink" x="0px" y="0px"
	 width="320px" height="320px" viewBox="0 0 320 320" enable-background="new 0 0 320 320" xml:space="preserve">
<g>
	<path d="M97.358,131.43c-0.595,0.397-1.19,0.794-1.984,0.992l73.012,42.26c0.396-0.199,0.794-0.595,1.19-0.793
		c5.556-3.175,14.483-3.175,20.038,0c0.794,0.396,1.588,0.991,2.183,1.586l30.355-17.657c-0.992-0.198-1.983-0.595-2.777-1.19
		c-5.555-3.175-5.555-8.333,0-11.507c0.794-0.397,1.785-0.793,2.777-1.19l-73.408-42.458c-0.396,0.397-0.992,0.794-1.587,1.19
		c-5.556,3.175-14.483,3.175-20.039,0c-0.595-0.396-1.19-0.793-1.587-1.19l-30.157,17.459c0.794,0.396,1.389,0.595,1.984,0.992
		C102.913,123.097,102.913,128.255,97.358,131.43z M192.194,153.056l8.531,4.96c0.794,0.397,0.794,1.19,0,1.587l-4.763,2.778
		c-0.793,0.396-1.983,0.396-2.578,0l-8.531-4.96c-0.794-0.396-0.794-1.19,0-1.587l4.761-2.778
		C190.408,152.659,191.599,152.659,192.194,153.056z M137.435,125.676c11.904-6.944,31.347-6.944,43.252,0
		c11.903,6.944,11.903,18.253,0.197,24.999c-11.903,6.944-31.347,6.944-43.251,0C125.531,143.731,125.531,132.62,137.435,125.676z
		 M117.396,116.947l4.762-2.778c0.793-0.396,1.984-0.396,2.579,0l8.333,4.762c0.992,0.595,0.992,1.389,0.198,1.786l-4.762,2.777
		c-0.793,0.397-1.984,0.397-2.579,0l-8.532-4.959C116.603,118.137,116.603,117.344,117.396,116.947z"/>
	<path d="M142.396,147.104l2.38,1.389c0.397,0.198,0.992,0.198,1.389,0l2.777-1.587c1.786,0.793,3.968,1.19,5.952,1.19
		c2.381,0.198,4.563-0.397,6.547-1.587c2.183-1.191,3.175-2.381,2.977-3.77c0-1.39-0.794-3.175-2.382-5.357
		c-0.595-0.992-0.793-1.587-0.793-2.183c0-0.397,0.397-0.992,1.19-1.389c0.596-0.396,1.587-0.793,2.381-0.793
		c0.992,0,1.786,0.198,2.579,0.595c0.794,0.397,1.19,0.992,0.992,1.587s-0.595,0.992-1.389,1.587
		c-0.198,0.198-0.198,0.595,0.198,0.793l4.166,2.381c0.397,0.198,1.19,0.198,1.588,0c1.785-1.191,2.579-2.381,2.777-3.571
		s-0.396-2.58-1.785-3.77l2.976-1.786c0.396-0.198,0.396-0.595,0-1.19l-2.381-1.389c-0.396-0.198-0.993-0.198-1.388,0l-2.977,1.786
		c-1.984-0.794-4.365-1.389-6.548-1.389c-2.381,0-4.563,0.397-6.548,1.587c-2.182,1.19-3.174,2.381-2.975,3.77
		c0,1.19,0.991,2.976,2.578,5.159c0.596,0.992,0.793,1.587,0.793,2.182c0,0.596-0.594,0.992-1.388,1.587s-1.587,0.794-2.579,0.794
		s-1.785-0.199-2.58-0.595c-0.991-0.595-1.388-1.19-1.388-1.984c0-0.595,0.397-1.19,1.388-1.786
		c0.199-0.198,0.199-0.596-0.197-0.793l-4.167-2.381c-0.396-0.198-1.19-0.198-1.587,0c-1.984,1.389-2.976,2.778-2.778,4.167
		c0.199,1.587,1.191,2.977,2.977,4.365l-2.777,1.587C141.999,146.509,141.999,146.905,142.396,147.104z"/>
	<path d="M235.938,22.566H81.736L3.463,159.999l79.44,137.435h154.199l79.436-139.785L235.938,22.566z M69.78,124.288l64.679-37.696
		c1.389-0.794,3.77-0.794,5.357,0l108.724,62.695c1.389,0.794,1.389,2.183-0.198,3.174l-64.679,37.697
		c-1.39,0.794-3.771,0.794-5.357,0L69.78,127.462C68.391,126.47,68.391,125.081,69.78,124.288z M76.922,142.541l104.757,60.512
		l59.52-34.521l8.531,4.96l-68.051,39.284l-2.184-1.191l-6.15-3.571L68.59,147.5L76.922,142.541z M181.877,234.004l-2.183-1.19
		l-6.151-3.572L68.59,168.531l8.333-4.96l104.955,60.711l59.124-34.323l8.531,4.96L181.877,234.004z"/>
</g>
</svg>
